#!OML:ASF H:\Dans Jumps\Project 1\Capture day 1\Session 1\subject.ASF
:FULLY-SPECIFIED
:DEGREES
268
root 0.518802 16.932 -13.8561 11.6555 0.328824 -1.32268
lowerback 7.31081 -0.424381 0.107032
upperback 5.22641 -0.563785 2.04752
thorax 1.3177 -0.312364 2.08303
lowerneck -15.9126 0.214914 -2.50681
upperneck 18.7321 0.981015 -0.257118
head 8.44993 0.254677 0.444179
rclavicle 3.97569e-015 -6.36111e-015
rhumerus -42.4474 -22.2473 -66.5489
rradius 22.5133
rwrist 34.2385
rhand -18.5389 -26.034
rfingers 7.12502
rthumb 7.75023 -55.872
lclavicle 3.97569e-015 -6.36111e-015
lhumerus -37.5849 8.25769 79.5114
lradius 14.7168
lwrist 3.17445
lhand -25.7604 -3.81289
lfingers 7.12502
lthumb 0.777158 26.1654
rfemur -29.0301 -0.25985 20.0424
rtibia 41.4011
rfoot -28.6694 -11.6144
rtoes 0.410233
lfemur -28.4452 3.45795 -18.712
ltibia 40.3603
lfoot -26.0258 18.0108
ltoes -13.3105
269
root 0.51475 16.8998 -13.8438 11.9048 0.36259 -1.31084
lowerback 7.63299 -0.41944 0.0701397
upperback 5.13199 -0.553193 2.04644
thorax 1.04205 -0.306257 2.10541
lowerneck -15.9872 0.200405 -2.52269
upperneck 18.5463 0.95782 -0.223299
head 8.40047 0.248245 0.454994
rclavicle 1.19271e-015 6.75868e-015
rhumerus -41.8036 -22.2218 -66.8863
rradius 22.358
rwrist 34.369
rhand -18.5866 -25.9635
rfingers 7.12502
rthumb 7.7042 -55.8032
lclavicle 1.19271e-015 6.75868e-015
lhumerus -37.2251 8.16752 79.6172
lradius 14.8967
lwrist 3.57461
lhand -25.9521 -4.03981
lfingers 7.12502
lthumb 0.591971 25.9391
rfemur -29.6608 -0.169464 20.0542
rtibia 42.194
rfoot -29.1203 -11.9647
rtoes 0.307782
lfemur -29.0668 3.30936 -18.709
ltibia 41.1068
lfoot -26.184 18.2602
ltoes -13.3031
270
root 0.510276 16.8652 -13.8324 12.181 0.394222 -1.30124
lowerback 7.98135 -0.411612 0.0263671
upperback 5.0209 -0.538909 2.05077
thorax 0.734989 -0.29817 2.13737
lowerneck -16.0804 0.187303 -2.53295
upperneck 18.36 0.938365 -0.201233
head 8.35432 0.24269 0.461413
rclavicle 5.76476e-015 1.59028e-015
rhumerus -41.1467 -22.1755 -67.234
rradius 22.225
rwrist 34.3706
rhand -18.5786 -25.9564
rfingers 7.12502
rthumb 7.71187 -55.7958
lclavicle 5.76476e-015 1.59028e-015
lhumerus -36.8586 8.07984 79.7221
lradius 15.0524
lwrist 3.96506
lhand -26.1299 -4.26028
lfingers 7.12502
lthumb 0.420289 25.719
rfemur -30.3467 -0.0785891 20.0693
rtibia 43.0284
rfoot -29.5338 -12.36
rtoes 0.272591
lfemur -29.7457 3.16101 -18.7022
ltibia 41.9009
lfoot -26.3319 18.5222
ltoes -13.2599
271
root 0.505408 16.8279 -13.822 12.4871 0.424293 -1.29363
lowerback 8.34975 -0.400567 -0.0219395
upperback 4.89452 -0.520534 2.06079
thorax 0.401326 -0.287802 2.17776
lowerneck -16.1856 0.17371 -2.54404
upperneck 18.1625 0.92082 -0.18877
head 8.30666 0.237077 0.464959
rclavicle 4.77083e-015 4.37326e-015
rhumerus -40.4795 -22.1149 -67.5854
rradius 22.1137
rwrist 34.2336
rhand -18.5282 -25.9912
rfingers 7.12502
rthumb 7.7605 -55.8287
lclavicle 4.77083e-015 4.37326e-015
lhumerus -36.4757 8.01903 79.8128
lradius 15.1742
lwrist 4.30081
lhand -26.2734 -4.45056
lfingers 7.12502
lthumb 0.281692 25.529
rfemur -31.093 0.00866998 20.0885
rtibia 43.9025
rfoot -29.8928 -12.7873
rtoes 0.321806
lfemur -30.4871 3.01338 -18.6921
ltibia 42.7411
lfoot -26.4626 18.7863
ltoes -13.1756
272
root 0.500376 16.7879 -13.8125 12.8204 0.450789 -1.28484
lowerback 8.74162 -0.384176 -0.0742659
upperback 4.75237 -0.495239 2.07531
thorax 0.0385139 -0.273622 2.22483
lowerneck -16.3077 0.159015 -2.55554
upperneck 17.9572 0.90441 -0.18587
head 8.25952 0.231035 0.465519
rclavicle 7.95139e-015 -8.34896e-015
rhumerus -39.8149 -22.0461 -67.9268
rradius 22.0062
rwrist 34.0485
rhand -18.5266 -26.0461
rfingers 7.12502
rthumb 7.76212 -55.8836
lclavicle 7.95139e-015 -8.34896e-015
lhumerus -36.0741 7.97655 79.8943
lradius 15.2503
lwrist 4.56236
lhand -26.4046 -4.62494
lfingers 7.12502
lthumb 0.154951 25.3547
rfemur -31.8962 0.0863129 20.1081
rtibia 44.8119
rfoot -30.194 -13.2179
rtoes 0.451889
lfemur -31.2852 2.86704 -18.6831
ltibia 43.6217
lfoot -26.5744 19.0268
ltoes -13.0306
273
root 0.495133 16.7453 -13.8037 13.1763 0.475046 -1.27561
lowerback 9.16506 -0.361826 -0.128381
upperback 4.5949 -0.462029 2.09438
thorax -0.357516 -0.254999 2.27729
lowerneck -16.4479 0.139776 -2.57339
upperneck 17.7443 0.884769 -0.186925
head 8.21311 0.222689 0.465444
rclavicle -5.36719e-015 -2.38542e-015
rhumerus -39.1553 -21.959 -68.2672
rradius 21.9097
rwrist 33.839
rhand -18.5794 -26.134
rfingers 7.12502
rthumb 7.71114 -55.9734
lclavicle -5.36719e-015 -2.38542e-015
lhumerus -35.6486 7.97038 79.9558
lradius 15.2823
lwrist 4.71911
lhand -26.4893 -4.73774
lfingers 7.12502
lthumb 0.0731555 25.242
rfemur -32.7498 0.148239 20.1306
rtibia 45.7518
rfoot -30.4441 -13.623
rtoes 0.631432
lfemur -32.1344 2.721 -18.6735
ltibia 44.5374
lfoot -26.6558 19.2315
ltoes -12.8584
274
root 0.489666 16.7002 -13.7959 13.5541 0.49931 -1.27142
lowerback 9.6152 -0.334245 -0.178186
upperback 4.42446 -0.421459 2.11924
thorax -0.78175 -0.232118 2.33282
lowerneck -16.6107 0.119183 -2.58926
upperneck 17.5253 0.866177 -0.200925
head 8.16878 0.213678 0.460875
rclavicle 1.78906e-015 -1.63003e-014
rhumerus -38.4979 -21.855 -68.609
rradius 21.8282
rwrist 33.6359
rhand -18.6971 -26.2366
rfingers 7.12502
rthumb 7.59757 -56.0802
lclavicle 1.78906e-015 -1.63003e-014
lhumerus -35.1966 8.01763 79.9899
lradius 15.2686
lwrist 4.74051
lhand -26.5234 -4.7517
lfingers 7.12502
lthumb 0.0402721 25.228
rfemur -33.6506 0.188695 20.1633
rtibia 46.7183
rfoot -30.6568 -13.9808
rtoes 0.818695
lfemur -33.0333 2.57659 -18.6566
ltibia 45.4845
lfoot -26.7129 19.3856
ltoes -12.6826
275
root 0.483918 16.6527 -13.7891 13.9504 0.523472 -1.27856
lowerback 10.0991 -0.30072 -0.218111
upperback 4.24004 -0.371867 2.15084
thorax -1.23931 -0.204049 2.38905
lowerneck -16.7919 0.0943085 -2.61179
upperneck 17.2995 0.844311 -0.216458
head 8.12546 0.202582 0.456528
rclavicle 3.97569e-015 1.82882e-014
rhumerus -37.8544 -21.7381 -68.9448
rradius 21.7566
rwrist 33.5478
rhand -18.8908 -26.3601
rfingers 7.12502
rthumb 7.41053 -56.2103
lclavicle 3.97569e-015 1.82882e-014
lhumerus -34.7218 8.134 79.9899
lradius 15.2037
lwrist 4.59764
lhand -26.5267 -4.73678
lfingers 7.12502
lthumb 0.0370506 25.243
rfemur -34.592 0.209704 20.2129
rtibia 47.7085
rfoot -30.845 -14.2901
rtoes 0.983412
lfemur -33.9778 2.43596 -18.6249
ltibia 46.4622
lfoot -26.747 19.4887
ltoes -12.5278
